<?xml version="1.0" encoding="UTF-8"?>
<svg xmlns="http://www.w3.org/2000/svg" xmlns:xlink="http://www.w3.org/1999/xlink" width="318" height="487" viewBox="0 0 318 487">
<defs>
<g>
<g id="glyph-0-0">
<path d="M 2.625 -4.546875 L 6.5625 -4.546875 L 6.5625 -6.96875 C 6.5625 -7.394531 6.535156 -7.679688 6.484375 -7.828125 C 6.441406 -7.929688 6.351562 -8.019531 6.21875 -8.09375 C 6.039062 -8.1875 5.851562 -8.234375 5.65625 -8.234375 L 5.359375 -8.234375 L 5.359375 -8.46875 L 8.984375 -8.46875 L 8.984375 -8.234375 L 8.671875 -8.234375 C 8.472656 -8.234375 8.285156 -8.1875 8.109375 -8.09375 C 7.972656 -8.03125 7.878906 -7.929688 7.828125 -7.796875 C 7.785156 -7.660156 7.765625 -7.382812 7.765625 -6.96875 L 7.765625 -1.5 C 7.765625 -1.070312 7.789062 -0.789062 7.84375 -0.65625 C 7.882812 -0.550781 7.972656 -0.457031 8.109375 -0.375 C 8.285156 -0.28125 8.472656 -0.234375 8.671875 -0.234375 L 8.984375 -0.234375 L 8.984375 0 L 5.359375 0 L 5.359375 -0.234375 L 5.65625 -0.234375 C 6 -0.234375 6.25 -0.332031 6.40625 -0.53125 C 6.507812 -0.664062 6.5625 -0.988281 6.5625 -1.5 L 6.5625 -4.078125 L 2.625 -4.078125 L 2.625 -1.5 C 2.625 -1.070312 2.65625 -0.789062 2.71875 -0.65625 C 2.757812 -0.550781 2.84375 -0.457031 2.96875 -0.375 C 3.15625 -0.28125 3.347656 -0.234375 3.546875 -0.234375 L 3.84375 -0.234375 L 3.84375 0 L 0.21875 0 L 0.21875 -0.234375 L 0.515625 -0.234375 C 0.867188 -0.234375 1.125 -0.332031 1.28125 -0.53125 C 1.382812 -0.664062 1.4375 -0.988281 1.4375 -1.5 L 1.4375 -6.96875 C 1.4375 -7.394531 1.40625 -7.679688 1.34375 -7.828125 C 1.300781 -7.929688 1.21875 -8.019531 1.09375 -8.09375 C 0.90625 -8.1875 0.710938 -8.234375 0.515625 -8.234375 L 0.21875 -8.234375 L 0.21875 -8.46875 L 3.84375 -8.46875 L 3.84375 -8.234375 L 3.546875 -8.234375 C 3.347656 -8.234375 3.15625 -8.1875 2.96875 -8.09375 C 2.84375 -8.03125 2.753906 -7.929688 2.703125 -7.796875 C 2.648438 -7.660156 2.625 -7.382812 2.625 -6.96875 Z M 2.625 -4.546875 "/>
</g>
<g id="glyph-0-1">
<path d="M 3.640625 -0.828125 C 3.054688 -0.367188 2.6875 -0.101562 2.53125 -0.03125 C 2.3125 0.0703125 2.070312 0.125 1.8125 0.125 C 1.414062 0.125 1.085938 -0.0078125 0.828125 -0.28125 C 0.578125 -0.550781 0.453125 -0.910156 0.453125 -1.359375 C 0.453125 -1.640625 0.515625 -1.878906 0.640625 -2.078125 C 0.816406 -2.359375 1.113281 -2.625 1.53125 -2.875 C 1.957031 -3.125 2.660156 -3.429688 3.640625 -3.796875 L 3.640625 -4.015625 C 3.640625 -4.585938 3.546875 -4.976562 3.359375 -5.1875 C 3.179688 -5.40625 2.921875 -5.515625 2.578125 -5.515625 C 2.316406 -5.515625 2.109375 -5.441406 1.953125 -5.296875 C 1.796875 -5.160156 1.71875 -5 1.71875 -4.8125 L 1.734375 -4.453125 C 1.734375 -4.253906 1.679688 -4.101562 1.578125 -4 C 1.484375 -3.894531 1.359375 -3.84375 1.203125 -3.84375 C 1.046875 -3.84375 0.914062 -3.894531 0.8125 -4 C 0.71875 -4.113281 0.671875 -4.265625 0.671875 -4.453125 C 0.671875 -4.816406 0.851562 -5.144531 1.21875 -5.4375 C 1.59375 -5.738281 2.109375 -5.890625 2.765625 -5.890625 C 3.273438 -5.890625 3.691406 -5.804688 4.015625 -5.640625 C 4.265625 -5.503906 4.445312 -5.300781 4.5625 -5.03125 C 4.632812 -4.851562 4.671875 -4.488281 4.671875 -3.9375 L 4.671875 -1.984375 C 4.671875 -1.441406 4.679688 -1.109375 4.703125 -0.984375 C 4.722656 -0.859375 4.753906 -0.773438 4.796875 -0.734375 C 4.847656 -0.691406 4.90625 -0.671875 4.96875 -0.671875 C 5.039062 -0.671875 5.101562 -0.6875 5.15625 -0.71875 C 5.238281 -0.769531 5.40625 -0.921875 5.65625 -1.171875 L 5.65625 -0.828125 C 5.1875 -0.203125 4.738281 0.109375 4.3125 0.109375 C 4.113281 0.109375 3.953125 0.0390625 3.828125 -0.09375 C 3.710938 -0.238281 3.648438 -0.484375 3.640625 -0.828125 Z M 3.640625 -1.234375 L 3.640625 -3.40625 C 3.015625 -3.15625 2.609375 -2.976562 2.421875 -2.875 C 2.097656 -2.695312 1.863281 -2.503906 1.71875 -2.296875 C 1.570312 -2.097656 1.5 -1.882812 1.5 -1.65625 C 1.5 -1.351562 1.585938 -1.101562 1.765625 -0.90625 C 1.953125 -0.707031 2.160156 -0.609375 2.390625 -0.609375 C 2.710938 -0.609375 3.128906 -0.816406 3.640625 -1.234375 Z M 3.640625 -1.234375 "/>
</g>
<g id="glyph-0-2">
<path d="M 4.25 -3.15625 L 4.25 -4.375 C 4.25 -4.769531 4.226562 -5.023438 4.1875 -5.140625 C 4.144531 -5.253906 4.0625 -5.335938 3.9375 -5.390625 C 3.820312 -5.453125 3.640625 -5.484375 3.390625 -5.484375 L 3.390625 -5.71875 L 6.15625 -5.71875 L 6.15625 -5.484375 C 5.875 -5.484375 5.6875 -5.453125 5.59375 -5.390625 C 5.5 -5.335938 5.421875 -5.269531 5.359375 -5.1875 C 5.304688 -5.101562 5.28125 -4.832031 5.28125 -4.375 L 5.28125 -1.34375 C 5.28125 -0.945312 5.300781 -0.691406 5.34375 -0.578125 C 5.382812 -0.460938 5.46875 -0.375 5.59375 -0.3125 C 5.71875 -0.257812 5.90625 -0.234375 6.15625 -0.234375 L 6.15625 0 L 3.25 0 L 3.25 -0.234375 C 3.582031 -0.242188 3.800781 -0.265625 3.90625 -0.296875 C 4.007812 -0.328125 4.09375 -0.40625 4.15625 -0.53125 C 4.21875 -0.664062 4.25 -0.9375 4.25 -1.34375 L 4.25 -2.75 C 3.632812 -2.4375 2.988281 -2.28125 2.3125 -2.28125 C 1.9375 -2.28125 1.644531 -2.328125 1.4375 -2.421875 C 1.238281 -2.515625 1.113281 -2.617188 1.0625 -2.734375 C 1.007812 -2.859375 0.984375 -3.0625 0.984375 -3.34375 L 0.984375 -4.375 C 0.984375 -4.75 0.960938 -4.992188 0.921875 -5.109375 C 0.890625 -5.222656 0.816406 -5.3125 0.703125 -5.375 C 0.585938 -5.445312 0.414062 -5.484375 0.1875 -5.484375 L 0.1875 -5.71875 L 2.875 -5.71875 L 2.875 -5.484375 C 2.601562 -5.484375 2.414062 -5.453125 2.3125 -5.390625 C 2.21875 -5.335938 2.144531 -5.269531 2.09375 -5.1875 C 2.039062 -5.101562 2.015625 -4.832031 2.015625 -4.375 L 2.015625 -3.671875 C 2.015625 -3.398438 2.03125 -3.210938 2.0625 -3.109375 C 2.101562 -3.015625 2.195312 -2.9375 2.34375 -2.875 C 2.488281 -2.8125 2.691406 -2.78125 2.953125 -2.78125 C 3.410156 -2.78125 3.84375 -2.90625 4.25 -3.15625 Z M 4.25 -3.15625 "/>
</g>
<g id="glyph-0-3">
<path d="M 0.984375 -5.71875 L 6.109375 -5.71875 L 6.109375 -5.484375 C 5.828125 -5.484375 5.640625 -5.453125 5.546875 -5.390625 C 5.453125 -5.335938 5.375 -5.269531 5.3125 -5.1875 C 5.257812 -5.101562 5.234375 -4.832031 5.234375 -4.375 L 5.234375 -1.34375 C 5.234375 -0.90625 5.253906 -0.640625 5.296875 -0.546875 C 5.347656 -0.460938 5.421875 -0.390625 5.515625 -0.328125 C 5.617188 -0.265625 5.816406 -0.234375 6.109375 -0.234375 L 6.109375 0 L 3.140625 0 L 3.140625 -0.234375 C 3.460938 -0.234375 3.6875 -0.25 3.8125 -0.28125 C 3.9375 -0.3125 4.03125 -0.390625 4.09375 -0.515625 C 4.164062 -0.648438 4.203125 -0.925781 4.203125 -1.34375 L 4.203125 -5.3125 L 2.296875 -5.3125 L 2.296875 -2.90625 C 2.296875 -1.988281 2.253906 -1.347656 2.171875 -0.984375 C 2.097656 -0.617188 1.941406 -0.347656 1.703125 -0.171875 C 1.460938 0.00390625 1.1875 0.09375 0.875 0.09375 C 0.34375 0.09375 0.078125 -0.125 0.078125 -0.5625 C 0.078125 -0.707031 0.117188 -0.828125 0.203125 -0.921875 C 0.285156 -1.023438 0.394531 -1.078125 0.53125 -1.078125 C 0.675781 -1.078125 0.8125 -1.015625 0.9375 -0.890625 C 1.101562 -0.734375 1.226562 -0.65625 1.3125 -0.65625 C 1.5 -0.65625 1.632812 -0.8125 1.71875 -1.125 C 1.800781 -1.4375 1.84375 -1.988281 1.84375 -2.78125 L 1.84375 -4.046875 C 1.84375 -4.691406 1.796875 -5.082031 1.703125 -5.21875 C 1.609375 -5.363281 1.367188 -5.453125 0.984375 -5.484375 Z M 0.984375 -5.71875 "/>
</g>
<g id="glyph-0-4">
<path d="M 3.203125 -5.890625 C 4.066406 -5.890625 4.757812 -5.5625 5.28125 -4.90625 C 5.726562 -4.34375 5.953125 -3.695312 5.953125 -2.96875 C 5.953125 -2.457031 5.828125 -1.9375 5.578125 -1.40625 C 5.335938 -0.882812 5 -0.488281 4.5625 -0.21875 C 4.132812 0.0390625 3.65625 0.171875 3.125 0.171875 C 2.269531 0.171875 1.585938 -0.171875 1.078125 -0.859375 C 0.648438 -1.429688 0.4375 -2.082031 0.4375 -2.8125 C 0.4375 -3.332031 0.566406 -3.851562 0.828125 -4.375 C 1.085938 -4.894531 1.425781 -5.273438 1.84375 -5.515625 C 2.269531 -5.765625 2.722656 -5.890625 3.203125 -5.890625 Z M 3 -5.484375 C 2.78125 -5.484375 2.554688 -5.414062 2.328125 -5.28125 C 2.109375 -5.15625 1.929688 -4.925781 1.796875 -4.59375 C 1.660156 -4.269531 1.59375 -3.847656 1.59375 -3.328125 C 1.59375 -2.492188 1.757812 -1.773438 2.09375 -1.171875 C 2.425781 -0.566406 2.863281 -0.265625 3.40625 -0.265625 C 3.800781 -0.265625 4.128906 -0.429688 4.390625 -0.765625 C 4.660156 -1.097656 4.796875 -1.671875 4.796875 -2.484375 C 4.796875 -3.503906 4.578125 -4.304688 4.140625 -4.890625 C 3.835938 -5.285156 3.457031 -5.484375 3 -5.484375 Z M 3 -5.484375 "/>
</g>
<g id="glyph-0-5">
<path d="M 8.484375 -0.234375 L 8.484375 0 L 6.3125 0 C 6.070312 -0.375 5.566406 -1.085938 4.796875 -2.140625 C 4.035156 -3.191406 3.570312 -3.773438 3.40625 -3.890625 C 3.238281 -4.003906 2.988281 -4.066406 2.65625 -4.078125 L 2.65625 -1.546875 C 2.65625 -0.984375 2.726562 -0.625 2.875 -0.46875 C 3.019531 -0.320312 3.351562 -0.242188 3.875 -0.234375 L 3.875 0 L 0.234375 0 L 0.234375 -0.234375 C 0.753906 -0.242188 1.085938 -0.320312 1.234375 -0.46875 C 1.378906 -0.625 1.453125 -0.984375 1.453125 -1.546875 L 1.453125 -6.921875 C 1.453125 -7.484375 1.378906 -7.835938 1.234375 -7.984375 C 1.085938 -8.140625 0.753906 -8.222656 0.234375 -8.234375 L 0.234375 -8.46875 L 3.875 -8.46875 L 3.875 -8.234375 C 3.351562 -8.222656 3.019531 -8.140625 2.875 -7.984375 C 2.726562 -7.835938 2.65625 -7.484375 2.65625 -6.921875 L 2.65625 -4.5625 C 3.113281 -4.570312 3.425781 -4.601562 3.59375 -4.65625 C 3.769531 -4.71875 3.96875 -4.847656 4.1875 -5.046875 C 4.40625 -5.242188 4.578125 -5.457031 4.703125 -5.6875 C 4.835938 -5.914062 5.003906 -6.296875 5.203125 -6.828125 C 5.390625 -7.328125 5.539062 -7.671875 5.65625 -7.859375 C 5.78125 -8.054688 5.972656 -8.222656 6.234375 -8.359375 C 6.492188 -8.503906 6.804688 -8.578125 7.171875 -8.578125 C 7.804688 -8.578125 8.125 -8.347656 8.125 -7.890625 C 8.125 -7.734375 8.0625 -7.597656 7.9375 -7.484375 C 7.8125 -7.367188 7.664062 -7.3125 7.5 -7.3125 C 7.382812 -7.3125 7.191406 -7.378906 6.921875 -7.515625 C 6.671875 -7.628906 6.5 -7.6875 6.40625 -7.6875 C 6.28125 -7.6875 6.164062 -7.613281 6.0625 -7.46875 C 5.96875 -7.332031 5.816406 -6.984375 5.609375 -6.421875 C 5.210938 -5.347656 4.703125 -4.671875 4.078125 -4.390625 C 4.460938 -4.316406 4.988281 -3.796875 5.65625 -2.828125 C 6.363281 -1.796875 6.882812 -1.109375 7.21875 -0.765625 C 7.550781 -0.421875 7.972656 -0.242188 8.484375 -0.234375 Z M 8.484375 -0.234375 "/>
</g>
<g id="glyph-0-6">
<path d="M 2.1875 -3.171875 L 4.65625 -3.171875 L 4.65625 -4.375 C 4.65625 -4.738281 4.640625 -4.972656 4.609375 -5.078125 C 4.585938 -5.191406 4.519531 -5.285156 4.40625 -5.359375 C 4.289062 -5.441406 4.085938 -5.484375 3.796875 -5.484375 L 3.796875 -5.71875 L 6.5625 -5.71875 L 6.5625 -5.484375 C 6.300781 -5.484375 6.109375 -5.453125 5.984375 -5.390625 C 5.867188 -5.335938 5.789062 -5.253906 5.75 -5.140625 C 5.707031 -5.035156 5.6875 -4.78125 5.6875 -4.375 L 5.6875 -1.34375 C 5.6875 -0.976562 5.703125 -0.738281 5.734375 -0.625 C 5.765625 -0.507812 5.84375 -0.414062 5.96875 -0.34375 C 6.09375 -0.269531 6.289062 -0.234375 6.5625 -0.234375 L 6.5625 0 L 3.796875 0 L 3.796875 -0.234375 C 4.140625 -0.234375 4.367188 -0.296875 4.484375 -0.421875 C 4.597656 -0.546875 4.65625 -0.851562 4.65625 -1.34375 L 4.65625 -2.765625 L 2.1875 -2.765625 L 2.1875 -1.34375 C 2.1875 -0.976562 2.203125 -0.738281 2.234375 -0.625 C 2.265625 -0.507812 2.335938 -0.414062 2.453125 -0.34375 C 2.578125 -0.269531 2.78125 -0.234375 3.0625 -0.234375 L 3.0625 0 L 0.28125 0 L 0.28125 -0.234375 C 0.65625 -0.234375 0.894531 -0.300781 1 -0.4375 C 1.101562 -0.570312 1.15625 -0.875 1.15625 -1.34375 L 1.15625 -4.375 C 1.15625 -4.738281 1.140625 -4.976562 1.109375 -5.09375 C 1.078125 -5.21875 1 -5.3125 0.875 -5.375 C 0.757812 -5.445312 0.5625 -5.484375 0.28125 -5.484375 L 0.28125 -5.71875 L 3.0625 -5.71875 L 3.0625 -5.484375 C 2.800781 -5.484375 2.609375 -5.453125 2.484375 -5.390625 C 2.367188 -5.335938 2.289062 -5.253906 2.25 -5.140625 C 2.207031 -5.035156 2.1875 -4.78125 2.1875 -4.375 Z M 2.1875 -3.171875 "/>
</g>
<g id="glyph-0-7">
<path d="M 1.359375 -3.5625 C 1.359375 -2.71875 1.566406 -2.050781 1.984375 -1.5625 C 2.398438 -1.082031 2.890625 -0.84375 3.453125 -0.84375 C 3.828125 -0.84375 4.148438 -0.945312 4.421875 -1.15625 C 4.703125 -1.363281 4.9375 -1.71875 5.125 -2.21875 L 5.3125 -2.09375 C 5.226562 -1.519531 4.972656 -1 4.546875 -0.53125 C 4.128906 -0.0625 3.601562 0.171875 2.96875 0.171875 C 2.28125 0.171875 1.691406 -0.09375 1.203125 -0.625 C 0.710938 -1.164062 0.46875 -1.882812 0.46875 -2.78125 C 0.46875 -3.757812 0.71875 -4.523438 1.21875 -5.078125 C 1.726562 -5.628906 2.363281 -5.90625 3.125 -5.90625 C 3.757812 -5.90625 4.28125 -5.691406 4.6875 -5.265625 C 5.101562 -4.835938 5.3125 -4.269531 5.3125 -3.5625 Z M 1.359375 -3.9375 L 4.015625 -3.9375 C 3.992188 -4.300781 3.945312 -4.554688 3.875 -4.703125 C 3.769531 -4.941406 3.613281 -5.125 3.40625 -5.25 C 3.207031 -5.382812 2.992188 -5.453125 2.765625 -5.453125 C 2.421875 -5.453125 2.113281 -5.316406 1.84375 -5.046875 C 1.570312 -4.785156 1.410156 -4.414062 1.359375 -3.9375 Z M 1.359375 -3.9375 "/>
</g>
<g id="glyph-0-8">
<path d="M 6.5625 -0.234375 L 6.5625 1.59375 L 6.328125 1.59375 C 6.316406 1.101562 6.15625 0.710938 5.84375 0.421875 C 5.539062 0.140625 4.988281 0 4.1875 0 L 0.28125 0 L 0.28125 -0.234375 C 0.65625 -0.234375 0.894531 -0.300781 1 -0.4375 C 1.101562 -0.570312 1.15625 -0.875 1.15625 -1.34375 L 1.15625 -4.375 C 1.15625 -4.820312 1.128906 -5.085938 1.078125 -5.171875 C 1.035156 -5.253906 0.96875 -5.328125 0.875 -5.390625 C 0.78125 -5.453125 0.582031 -5.484375 0.28125 -5.484375 L 0.28125 -5.71875 L 3.0625 -5.71875 L 3.0625 -5.484375 C 2.78125 -5.484375 2.585938 -5.453125 2.484375 -5.390625 C 2.390625 -5.335938 2.316406 -5.269531 2.265625 -5.1875 C 2.210938 -5.101562 2.1875 -4.832031 2.1875 -4.375 L 2.1875 -1.15625 C 2.1875 -0.789062 2.21875 -0.570312 2.28125 -0.5 C 2.34375 -0.4375 2.550781 -0.40625 2.90625 -0.40625 L 3.921875 -0.40625 C 4.304688 -0.40625 4.523438 -0.441406 4.578125 -0.515625 C 4.628906 -0.585938 4.65625 -0.816406 4.65625 -1.203125 L 4.65625 -4.375 C 4.65625 -4.769531 4.632812 -5.023438 4.59375 -5.140625 C 4.550781 -5.253906 4.46875 -5.335938 4.34375 -5.390625 C 4.226562 -5.453125 4.046875 -5.484375 3.796875 -5.484375 L 3.796875 -5.71875 L 6.5625 -5.71875 L 6.5625 -5.484375 C 6.28125 -5.484375 6.09375 -5.453125 6 -5.390625 C 5.90625 -5.335938 5.828125 -5.269531 5.765625 -5.1875 C 5.710938 -5.101562 5.6875 -4.832031 5.6875 -4.375 L 5.6875 -1.4375 C 5.6875 -0.894531 5.734375 -0.5625 5.828125 -0.4375 C 5.929688 -0.3125 6.175781 -0.242188 6.5625 -0.234375 Z M 6.5625 -0.234375 "/>
</g>
<g id="glyph-0-9">
<path d="M 7.703125 -8.671875 L 7.890625 -5.78125 L 7.703125 -5.78125 C 7.441406 -6.644531 7.070312 -7.265625 6.59375 -7.640625 C 6.113281 -8.023438 5.539062 -8.21875 4.875 -8.21875 C 4.3125 -8.21875 3.800781 -8.070312 3.34375 -7.78125 C 2.894531 -7.5 2.539062 -7.046875 2.28125 -6.421875 C 2.019531 -5.796875 1.890625 -5.019531 1.890625 -4.09375 C 1.890625 -3.320312 2.007812 -2.65625 2.25 -2.09375 C 2.5 -1.53125 2.867188 -1.097656 3.359375 -0.796875 C 3.859375 -0.503906 4.425781 -0.359375 5.0625 -0.359375 C 5.601562 -0.359375 6.082031 -0.472656 6.5 -0.703125 C 6.925781 -0.941406 7.390625 -1.410156 7.890625 -2.109375 L 8.09375 -1.984375 C 7.664062 -1.234375 7.164062 -0.679688 6.59375 -0.328125 C 6.03125 0.015625 5.363281 0.1875 4.59375 0.1875 C 3.1875 0.1875 2.097656 -0.332031 1.328125 -1.375 C 0.753906 -2.144531 0.46875 -3.054688 0.46875 -4.109375 C 0.46875 -4.953125 0.65625 -5.726562 1.03125 -6.4375 C 1.40625 -7.144531 1.925781 -7.691406 2.59375 -8.078125 C 3.257812 -8.472656 3.988281 -8.671875 4.78125 -8.671875 C 5.382812 -8.671875 5.984375 -8.519531 6.578125 -8.21875 C 6.753906 -8.125 6.878906 -8.078125 6.953125 -8.078125 C 7.066406 -8.078125 7.164062 -8.117188 7.25 -8.203125 C 7.363281 -8.304688 7.441406 -8.460938 7.484375 -8.671875 Z M 7.703125 -8.671875 "/>
</g>
<g id="glyph-0-10">
</g>
<g id="glyph-0-11">
<path d="M 4.65625 -5.3125 L 2.1875 -5.3125 L 2.1875 -1.34375 C 2.1875 -0.90625 2.207031 -0.640625 2.25 -0.546875 C 2.300781 -0.460938 2.375 -0.390625 2.46875 -0.328125 C 2.570312 -0.265625 2.769531 -0.234375 3.0625 -0.234375 L 3.0625 0 L 0.28125 0 L 0.28125 -0.234375 C 0.65625 -0.234375 0.894531 -0.300781 1 -0.4375 C 1.101562 -0.570312 1.15625 -0.875 1.15625 -1.34375 L 1.15625 -4.375 C 1.15625 -4.820312 1.128906 -5.085938 1.078125 -5.171875 C 1.035156 -5.253906 0.96875 -5.328125 0.875 -5.390625 C 0.78125 -5.453125 0.582031 -5.484375 0.28125 -5.484375 L 0.28125 -5.71875 L 6.5625 -5.71875 L 6.5625 -5.484375 C 6.28125 -5.484375 6.09375 -5.453125 6 -5.390625 C 5.90625 -5.335938 5.828125 -5.269531 5.765625 -5.1875 C 5.710938 -5.101562 5.6875 -4.832031 5.6875 -4.375 L 5.6875 -1.34375 C 5.6875 -0.90625 5.707031 -0.640625 5.75 -0.546875 C 5.800781 -0.460938 5.875 -0.390625 5.96875 -0.328125 C 6.070312 -0.265625 6.269531 -0.234375 6.5625 -0.234375 L 6.5625 0 L 3.796875 0 L 3.796875 -0.234375 C 4.140625 -0.234375 4.367188 -0.296875 4.484375 -0.421875 C 4.597656 -0.546875 4.65625 -0.851562 4.65625 -1.34375 Z M 4.65625 -5.3125 "/>
</g>
<g id="glyph-0-12">
<path d="M 5.265625 -2.171875 C 5.109375 -1.421875 4.804688 -0.84375 4.359375 -0.4375 C 3.910156 -0.03125 3.410156 0.171875 2.859375 0.171875 C 2.210938 0.171875 1.644531 -0.0976562 1.15625 -0.640625 C 0.675781 -1.191406 0.4375 -1.929688 0.4375 -2.859375 C 0.4375 -3.753906 0.703125 -4.484375 1.234375 -5.046875 C 1.773438 -5.609375 2.421875 -5.890625 3.171875 -5.890625 C 3.734375 -5.890625 4.191406 -5.738281 4.546875 -5.4375 C 4.910156 -5.144531 5.09375 -4.835938 5.09375 -4.515625 C 5.09375 -4.359375 5.039062 -4.226562 4.9375 -4.125 C 4.84375 -4.03125 4.703125 -3.984375 4.515625 -3.984375 C 4.273438 -3.984375 4.09375 -4.0625 3.96875 -4.21875 C 3.894531 -4.3125 3.84375 -4.476562 3.8125 -4.71875 C 3.789062 -4.96875 3.707031 -5.15625 3.5625 -5.28125 C 3.414062 -5.40625 3.21875 -5.46875 2.96875 -5.46875 C 2.550781 -5.46875 2.210938 -5.316406 1.953125 -5.015625 C 1.617188 -4.609375 1.453125 -4.066406 1.453125 -3.390625 C 1.453125 -2.710938 1.617188 -2.109375 1.953125 -1.578125 C 2.285156 -1.054688 2.738281 -0.796875 3.3125 -0.796875 C 3.71875 -0.796875 4.082031 -0.9375 4.40625 -1.21875 C 4.632812 -1.40625 4.859375 -1.753906 5.078125 -2.265625 Z M 5.265625 -2.171875 "/>
</g>
<g id="glyph-0-13">
<path d="M 1.1875 -5.71875 L 6.234375 -5.71875 L 6.234375 -5.484375 C 5.953125 -5.484375 5.765625 -5.453125 5.671875 -5.390625 C 5.578125 -5.335938 5.5 -5.269531 5.4375 -5.1875 C 5.382812 -5.101562 5.359375 -4.832031 5.359375 -4.375 L 5.359375 -1.546875 C 5.359375 -0.953125 5.410156 -0.585938 5.515625 -0.453125 C 5.617188 -0.316406 5.859375 -0.242188 6.234375 -0.234375 L 6.234375 1.59375 L 6 1.59375 C 5.976562 1.25 5.890625 0.945312 5.734375 0.6875 C 5.585938 0.4375 5.378906 0.257812 5.109375 0.15625 C 4.835938 0.0507812 4.4375 0 3.90625 0 L 2.4375 0 C 1.976562 0 1.617188 0.0390625 1.359375 0.125 C 1.097656 0.207031 0.878906 0.375 0.703125 0.625 C 0.535156 0.882812 0.429688 1.207031 0.390625 1.59375 L 0.15625 1.59375 L 0.15625 -0.234375 C 0.5 -0.242188 0.8125 -0.378906 1.09375 -0.640625 C 1.375 -0.898438 1.617188 -1.40625 1.828125 -2.15625 C 2.046875 -2.90625 2.15625 -3.644531 2.15625 -4.375 C 2.15625 -5.09375 1.832031 -5.460938 1.1875 -5.484375 Z M 2.5625 -5.3125 L 2.5625 -4.96875 C 2.5625 -2.925781 2.191406 -1.40625 1.453125 -0.40625 L 3.578125 -0.40625 C 3.960938 -0.40625 4.179688 -0.4375 4.234375 -0.5 C 4.296875 -0.5625 4.328125 -0.800781 4.328125 -1.21875 L 4.328125 -5.3125 Z M 2.5625 -5.3125 "/>
</g>
<g id="glyph-0-14">
<path d="M 4.9375 -5.71875 L 5.171875 -4.15625 L 4.890625 -4.15625 C 4.734375 -4.675781 4.570312 -5 4.40625 -5.125 C 4.25 -5.25 3.914062 -5.3125 3.40625 -5.3125 L 2.1875 -5.3125 L 2.1875 -1.34375 C 2.1875 -0.90625 2.207031 -0.640625 2.25 -0.546875 C 2.300781 -0.460938 2.375 -0.390625 2.46875 -0.328125 C 2.570312 -0.265625 2.769531 -0.234375 3.0625 -0.234375 L 3.0625 0 L 0.1875 0 L 0.1875 -0.234375 C 0.601562 -0.242188 0.867188 -0.304688 0.984375 -0.421875 C 1.097656 -0.535156 1.15625 -0.84375 1.15625 -1.34375 L 1.15625 -4.375 C 1.15625 -4.78125 1.128906 -5.039062 1.078125 -5.15625 C 1.035156 -5.269531 0.957031 -5.351562 0.84375 -5.40625 C 0.726562 -5.457031 0.507812 -5.484375 0.1875 -5.484375 L 0.1875 -5.71875 Z M 4.9375 -5.71875 "/>
</g>
<g id="glyph-0-15">
<path d="M 9.5625 -0.234375 L 9.5625 0 L 0.28125 0 L 0.28125 -0.234375 C 0.632812 -0.234375 0.867188 -0.296875 0.984375 -0.421875 C 1.097656 -0.546875 1.15625 -0.851562 1.15625 -1.34375 L 1.15625 -4.375 C 1.15625 -4.820312 1.128906 -5.085938 1.078125 -5.171875 C 1.035156 -5.253906 0.96875 -5.328125 0.875 -5.390625 C 0.78125 -5.453125 0.582031 -5.484375 0.28125 -5.484375 L 0.28125 -5.71875 L 3.0625 -5.71875 L 3.0625 -5.484375 C 2.78125 -5.484375 2.585938 -5.453125 2.484375 -5.390625 C 2.390625 -5.335938 2.316406 -5.269531 2.265625 -5.1875 C 2.210938 -5.101562 2.1875 -4.832031 2.1875 -4.375 L 2.1875 -1.21875 C 2.1875 -0.820312 2.222656 -0.585938 2.296875 -0.515625 C 2.367188 -0.441406 2.601562 -0.40625 3 -0.40625 L 3.6875 -0.40625 C 3.945312 -0.40625 4.117188 -0.421875 4.203125 -0.453125 C 4.285156 -0.484375 4.335938 -0.535156 4.359375 -0.609375 C 4.390625 -0.679688 4.40625 -0.925781 4.40625 -1.34375 L 4.40625 -4.375 C 4.40625 -4.820312 4.382812 -5.085938 4.34375 -5.171875 C 4.300781 -5.253906 4.226562 -5.328125 4.125 -5.390625 C 4.03125 -5.453125 3.835938 -5.484375 3.546875 -5.484375 L 3.546875 -5.71875 L 6.203125 -5.71875 L 6.203125 -5.484375 C 5.984375 -5.484375 5.816406 -5.445312 5.703125 -5.375 C 5.597656 -5.300781 5.523438 -5.207031 5.484375 -5.09375 C 5.453125 -4.988281 5.4375 -4.75 5.4375 -4.375 L 5.4375 -1.15625 C 5.4375 -0.789062 5.472656 -0.570312 5.546875 -0.5 C 5.617188 -0.4375 5.835938 -0.40625 6.203125 -0.40625 L 6.953125 -0.40625 C 7.347656 -0.40625 7.566406 -0.445312 7.609375 -0.53125 C 7.648438 -0.613281 7.671875 -0.875 7.671875 -1.3125 L 7.671875 -4.375 C 7.671875 -4.820312 7.644531 -5.085938 7.59375 -5.171875 C 7.550781 -5.253906 7.476562 -5.328125 7.375 -5.390625 C 7.28125 -5.453125 7.085938 -5.484375 6.796875 -5.484375 L 6.796875 -5.71875 L 9.5625 -5.71875 L 9.5625 -5.484375 C 9.28125 -5.484375 9.09375 -5.453125 9 -5.390625 C 8.90625 -5.335938 8.832031 -5.269531 8.78125 -5.1875 C 8.726562 -5.101562 8.703125 -4.832031 8.703125 -4.375 L 8.703125 -1.6875 C 8.703125 -1.125 8.71875 -0.773438 8.75 -0.640625 C 8.78125 -0.503906 8.847656 -0.40625 8.953125 -0.34375 C 9.066406 -0.28125 9.269531 -0.242188 9.5625 -0.234375 Z M 9.5625 -0.234375 "/>
</g>
<g id="glyph-0-16">
<path d="M -0.015625 -5.15625 L 1.75 -5.875 L 1.984375 -5.875 L 1.984375 -4.53125 C 2.285156 -5.03125 2.582031 -5.378906 2.875 -5.578125 C 3.175781 -5.785156 3.488281 -5.890625 3.8125 -5.890625 C 4.394531 -5.890625 4.875 -5.664062 5.25 -5.21875 C 5.726562 -4.664062 5.96875 -3.945312 5.96875 -3.0625 C 5.96875 -2.082031 5.679688 -1.269531 5.109375 -0.625 C 4.640625 -0.09375 4.050781 0.171875 3.34375 0.171875 C 3.039062 0.171875 2.773438 0.128906 2.546875 0.046875 C 2.378906 -0.015625 2.191406 -0.140625 1.984375 -0.328125 L 1.984375 1.40625 C 1.984375 1.800781 2.003906 2.050781 2.046875 2.15625 C 2.097656 2.257812 2.179688 2.34375 2.296875 2.40625 C 2.421875 2.46875 2.640625 2.5 2.953125 2.5 L 2.953125 2.734375 L -0.046875 2.734375 L -0.046875 2.5 L 0.109375 2.5 C 0.335938 2.507812 0.535156 2.46875 0.703125 2.375 C 0.773438 2.332031 0.832031 2.257812 0.875 2.15625 C 0.925781 2.050781 0.953125 1.789062 0.953125 1.375 L 0.953125 -4.03125 C 0.953125 -4.40625 0.929688 -4.640625 0.890625 -4.734375 C 0.859375 -4.835938 0.804688 -4.914062 0.734375 -4.96875 C 0.660156 -5.019531 0.5625 -5.046875 0.4375 -5.046875 C 0.34375 -5.046875 0.21875 -5.015625 0.0625 -4.953125 Z M 1.984375 -4.15625 L 1.984375 -2.03125 C 1.984375 -1.5625 2.003906 -1.253906 2.046875 -1.109375 C 2.097656 -0.867188 2.238281 -0.65625 2.46875 -0.46875 C 2.695312 -0.289062 2.984375 -0.203125 3.328125 -0.203125 C 3.742188 -0.203125 4.082031 -0.363281 4.34375 -0.6875 C 4.675781 -1.113281 4.84375 -1.710938 4.84375 -2.484375 C 4.84375 -3.359375 4.65625 -4.03125 4.28125 -4.5 C 4.007812 -4.820312 3.691406 -4.984375 3.328125 -4.984375 C 3.128906 -4.984375 2.929688 -4.9375 2.734375 -4.84375 C 2.578125 -4.757812 2.328125 -4.53125 1.984375 -4.15625 Z M 1.984375 -4.15625 "/>
</g>
<g id="glyph-0-17">
<path d="M 4.09375 -1.5 L 5.890625 -5.71875 L 7.8125 -5.71875 L 7.8125 -5.484375 C 7.53125 -5.484375 7.34375 -5.453125 7.25 -5.390625 C 7.15625 -5.335938 7.082031 -5.269531 7.03125 -5.1875 C 6.976562 -5.101562 6.953125 -4.832031 6.953125 -4.375 L 6.953125 -1.34375 C 6.953125 -0.945312 6.96875 -0.691406 7 -0.578125 C 7.039062 -0.460938 7.125 -0.375 7.25 -0.3125 C 7.375 -0.257812 7.5625 -0.234375 7.8125 -0.234375 L 7.8125 0 L 5.046875 0 L 5.046875 -0.234375 C 5.390625 -0.234375 5.617188 -0.296875 5.734375 -0.421875 C 5.847656 -0.546875 5.90625 -0.851562 5.90625 -1.34375 L 5.90625 -4.78125 L 3.890625 0 L 3.671875 0 L 1.609375 -4.78125 L 1.609375 -1.34375 C 1.609375 -0.945312 1.628906 -0.691406 1.671875 -0.578125 C 1.710938 -0.460938 1.789062 -0.375 1.90625 -0.3125 C 2.03125 -0.257812 2.21875 -0.234375 2.46875 -0.234375 L 2.46875 0 L 0.28125 0 L 0.28125 -0.234375 C 0.65625 -0.234375 0.894531 -0.300781 1 -0.4375 C 1.101562 -0.570312 1.15625 -0.875 1.15625 -1.34375 L 1.15625 -4.375 C 1.15625 -4.820312 1.128906 -5.085938 1.078125 -5.171875 C 1.035156 -5.253906 0.96875 -5.328125 0.875 -5.390625 C 0.78125 -5.453125 0.582031 -5.484375 0.28125 -5.484375 L 0.28125 -5.71875 L 2.296875 -5.71875 Z M 4.09375 -1.5 "/>
</g>
<g id="glyph-0-18">
<path d="M 2.1875 -3.171875 L 2.90625 -3.1875 C 4.601562 -3.1875 5.453125 -2.660156 5.453125 -1.609375 C 5.453125 -1.117188 5.242188 -0.726562 4.828125 -0.4375 C 4.410156 -0.144531 3.8125 0 3.03125 0 L 0.28125 0 L 0.28125 -0.234375 C 0.65625 -0.234375 0.894531 -0.300781 1 -0.4375 C 1.101562 -0.570312 1.15625 -0.875 1.15625 -1.34375 L 1.15625 -4.375 C 1.15625 -4.820312 1.128906 -5.085938 1.078125 -5.171875 C 1.035156 -5.253906 0.96875 -5.328125 0.875 -5.390625 C 0.78125 -5.453125 0.582031 -5.484375 0.28125 -5.484375 L 0.28125 -5.71875 L 3.28125 -5.71875 L 3.28125 -5.484375 C 2.863281 -5.484375 2.609375 -5.457031 2.515625 -5.40625 C 2.421875 -5.363281 2.34375 -5.300781 2.28125 -5.21875 C 2.21875 -5.144531 2.1875 -4.863281 2.1875 -4.375 Z M 2.1875 -0.5 C 2.40625 -0.4375 2.625 -0.40625 2.84375 -0.40625 C 3.257812 -0.40625 3.597656 -0.515625 3.859375 -0.734375 C 4.117188 -0.953125 4.25 -1.234375 4.25 -1.578125 C 4.25 -2.378906 3.695312 -2.78125 2.59375 -2.78125 C 2.488281 -2.78125 2.351562 -2.773438 2.1875 -2.765625 Z M 2.1875 -0.5 "/>
</g>
<g id="glyph-0-19">
<path d="M 1.5 -7.640625 L 3.5625 -8.640625 L 3.765625 -8.640625 L 3.765625 -1.5 C 3.765625 -1.019531 3.785156 -0.722656 3.828125 -0.609375 C 3.867188 -0.492188 3.953125 -0.40625 4.078125 -0.34375 C 4.203125 -0.28125 4.457031 -0.242188 4.84375 -0.234375 L 4.84375 0 L 1.65625 0 L 1.65625 -0.234375 C 2.050781 -0.242188 2.304688 -0.273438 2.421875 -0.328125 C 2.535156 -0.390625 2.613281 -0.472656 2.65625 -0.578125 C 2.707031 -0.679688 2.734375 -0.988281 2.734375 -1.5 L 2.734375 -6.0625 C 2.734375 -6.675781 2.710938 -7.070312 2.671875 -7.25 C 2.640625 -7.382812 2.585938 -7.484375 2.515625 -7.546875 C 2.441406 -7.609375 2.347656 -7.640625 2.234375 -7.640625 C 2.078125 -7.640625 1.863281 -7.578125 1.59375 -7.453125 Z M 1.5 -7.640625 "/>
</g>
<g id="glyph-0-20">
<path d="M 0.46875 -4.1875 C 0.46875 -5.15625 0.613281 -5.988281 0.90625 -6.6875 C 1.195312 -7.382812 1.582031 -7.898438 2.0625 -8.234375 C 2.4375 -8.503906 2.820312 -8.640625 3.21875 -8.640625 C 3.875 -8.640625 4.457031 -8.3125 4.96875 -7.65625 C 5.613281 -6.832031 5.9375 -5.71875 5.9375 -4.3125 C 5.9375 -3.332031 5.796875 -2.5 5.515625 -1.8125 C 5.234375 -1.125 4.875 -0.625 4.4375 -0.3125 C 4 0 3.570312 0.15625 3.15625 0.15625 C 2.351562 0.15625 1.679688 -0.320312 1.140625 -1.28125 C 0.691406 -2.082031 0.46875 -3.050781 0.46875 -4.1875 Z M 1.6875 -4.03125 C 1.6875 -2.863281 1.832031 -1.910156 2.125 -1.171875 C 2.351562 -0.554688 2.707031 -0.25 3.1875 -0.25 C 3.40625 -0.25 3.632812 -0.347656 3.875 -0.546875 C 4.125 -0.742188 4.3125 -1.082031 4.4375 -1.5625 C 4.625 -2.28125 4.71875 -3.289062 4.71875 -4.59375 C 4.71875 -5.5625 4.617188 -6.367188 4.421875 -7.015625 C 4.265625 -7.492188 4.070312 -7.832031 3.84375 -8.03125 C 3.664062 -8.164062 3.457031 -8.234375 3.21875 -8.234375 C 2.9375 -8.234375 2.6875 -8.109375 2.46875 -7.859375 C 2.164062 -7.503906 1.957031 -6.957031 1.84375 -6.21875 C 1.738281 -5.476562 1.6875 -4.75 1.6875 -4.03125 Z M 1.6875 -4.03125 "/>
</g>
<g id="glyph-0-21">
<path d="M 3.59375 -8.890625 L 0.515625 0.171875 L 0.015625 0.171875 L 3.09375 -8.890625 Z M 3.59375 -8.890625 "/>
</g>
<g id="glyph-0-22">
<path d="M 6.140625 0 L 4.453125 0 C 3.929688 -0.757812 3.457031 -1.539062 3.03125 -2.34375 C 2.925781 -2.53125 2.832031 -2.664062 2.75 -2.75 C 2.675781 -2.84375 2.566406 -2.890625 2.421875 -2.890625 C 2.367188 -2.890625 2.289062 -2.882812 2.1875 -2.875 L 2.1875 -1.34375 C 2.1875 -0.925781 2.207031 -0.660156 2.25 -0.546875 C 2.300781 -0.429688 2.390625 -0.347656 2.515625 -0.296875 C 2.640625 -0.253906 2.851562 -0.234375 3.15625 -0.234375 L 3.15625 0 L 0.28125 0 L 0.28125 -0.234375 C 0.65625 -0.234375 0.894531 -0.300781 1 -0.4375 C 1.101562 -0.570312 1.15625 -0.875 1.15625 -1.34375 L 1.15625 -4.375 C 1.15625 -4.820312 1.128906 -5.085938 1.078125 -5.171875 C 1.035156 -5.253906 0.96875 -5.328125 0.875 -5.390625 C 0.78125 -5.453125 0.582031 -5.484375 0.28125 -5.484375 L 0.28125 -5.71875 L 3.15625 -5.71875 L 3.15625 -5.484375 C 2.800781 -5.484375 2.582031 -5.457031 2.5 -5.40625 C 2.425781 -5.363281 2.351562 -5.304688 2.28125 -5.234375 C 2.21875 -5.160156 2.1875 -4.875 2.1875 -4.375 L 2.1875 -3.25 C 2.28125 -3.25 2.34375 -3.25 2.375 -3.25 C 2.632812 -3.25 2.875 -3.316406 3.09375 -3.453125 C 3.320312 -3.597656 3.519531 -3.90625 3.6875 -4.375 C 3.851562 -4.8125 3.988281 -5.109375 4.09375 -5.265625 C 4.195312 -5.421875 4.34375 -5.546875 4.53125 -5.640625 C 4.726562 -5.742188 4.929688 -5.796875 5.140625 -5.796875 C 5.359375 -5.796875 5.535156 -5.738281 5.671875 -5.625 C 5.804688 -5.519531 5.875 -5.378906 5.875 -5.203125 C 5.875 -5.054688 5.828125 -4.929688 5.734375 -4.828125 C 5.640625 -4.734375 5.503906 -4.6875 5.328125 -4.6875 C 5.234375 -4.6875 5.117188 -4.707031 4.984375 -4.75 C 4.804688 -4.8125 4.675781 -4.84375 4.59375 -4.84375 C 4.394531 -4.84375 4.234375 -4.679688 4.109375 -4.359375 C 3.972656 -3.972656 3.867188 -3.722656 3.796875 -3.609375 C 3.734375 -3.503906 3.609375 -3.363281 3.421875 -3.1875 C 3.546875 -3.144531 3.679688 -3.046875 3.828125 -2.890625 C 3.984375 -2.734375 4.269531 -2.296875 4.6875 -1.578125 C 5.019531 -0.992188 5.265625 -0.625 5.421875 -0.46875 C 5.585938 -0.320312 5.828125 -0.242188 6.140625 -0.234375 Z M 6.140625 0 "/>
</g>
<g id="glyph-0-23">
<path d="M 0.3125 -5.71875 L 5.265625 -5.71875 L 5.515625 -4.171875 L 5.234375 -4.171875 C 5.179688 -4.484375 5.097656 -4.722656 4.984375 -4.890625 C 4.867188 -5.066406 4.734375 -5.179688 4.578125 -5.234375 C 4.429688 -5.285156 4.175781 -5.3125 3.8125 -5.3125 L 3.3125 -5.3125 L 3.3125 -1.34375 C 3.3125 -0.914062 3.335938 -0.644531 3.390625 -0.53125 C 3.441406 -0.414062 3.523438 -0.335938 3.640625 -0.296875 C 3.753906 -0.265625 4.019531 -0.242188 4.4375 -0.234375 L 4.4375 0 L 1.328125 0 L 1.328125 -0.234375 C 1.734375 -0.242188 1.992188 -0.304688 2.109375 -0.421875 C 2.222656 -0.546875 2.28125 -0.851562 2.28125 -1.34375 L 2.28125 -5.3125 L 1.765625 -5.3125 C 1.398438 -5.3125 1.15625 -5.289062 1.03125 -5.25 C 0.90625 -5.207031 0.78125 -5.101562 0.65625 -4.9375 C 0.539062 -4.769531 0.441406 -4.515625 0.359375 -4.171875 L 0.078125 -4.171875 Z M 0.3125 -5.71875 "/>
</g>
<g id="glyph-0-24">
<path d="M 2.84375 -2 L 2.578125 -2 C 2.609375 -2.519531 2.675781 -2.953125 2.78125 -3.296875 C 2.882812 -3.640625 3.09375 -4.117188 3.40625 -4.734375 C 3.65625 -5.203125 3.816406 -5.5625 3.890625 -5.8125 C 3.972656 -6.070312 4.015625 -6.328125 4.015625 -6.578125 C 4.015625 -7.109375 3.875 -7.53125 3.59375 -7.84375 C 3.3125 -8.15625 2.96875 -8.3125 2.5625 -8.3125 C 2.195312 -8.3125 1.910156 -8.222656 1.703125 -8.046875 C 1.492188 -7.878906 1.390625 -7.695312 1.390625 -7.5 C 1.390625 -7.34375 1.453125 -7.148438 1.578125 -6.921875 C 1.703125 -6.703125 1.765625 -6.535156 1.765625 -6.421875 C 1.765625 -6.273438 1.710938 -6.148438 1.609375 -6.046875 C 1.515625 -5.941406 1.398438 -5.890625 1.265625 -5.890625 C 1.085938 -5.890625 0.925781 -5.972656 0.78125 -6.140625 C 0.644531 -6.316406 0.578125 -6.5625 0.578125 -6.875 C 0.578125 -7.34375 0.773438 -7.757812 1.171875 -8.125 C 1.578125 -8.488281 2.128906 -8.671875 2.828125 -8.671875 C 3.679688 -8.671875 4.3125 -8.421875 4.71875 -7.921875 C 5.019531 -7.546875 5.171875 -7.140625 5.171875 -6.703125 C 5.171875 -6.398438 5.101562 -6.085938 4.96875 -5.765625 C 4.832031 -5.441406 4.570312 -5.0625 4.1875 -4.625 C 3.582031 -3.945312 3.210938 -3.460938 3.078125 -3.171875 C 2.941406 -2.890625 2.863281 -2.5 2.84375 -2 Z M 2.75 -1.21875 C 2.945312 -1.21875 3.113281 -1.148438 3.25 -1.015625 C 3.382812 -0.878906 3.453125 -0.71875 3.453125 -0.53125 C 3.453125 -0.332031 3.378906 -0.164062 3.234375 -0.03125 C 3.097656 0.101562 2.9375 0.171875 2.75 0.171875 C 2.5625 0.171875 2.398438 0.101562 2.265625 -0.03125 C 2.128906 -0.164062 2.0625 -0.332031 2.0625 -0.53125 C 2.0625 -0.71875 2.128906 -0.878906 2.265625 -1.015625 C 2.398438 -1.148438 2.5625 -1.21875 2.75 -1.21875 Z M 2.75 -1.21875 "/>
</g>
<g id="glyph-0-25">
<path d="M 4.6875 -8.671875 C 5.78125 -8.671875 6.726562 -8.25 7.53125 -7.40625 C 8.34375 -6.570312 8.75 -5.53125 8.75 -4.28125 C 8.75 -3 8.34375 -1.929688 7.53125 -1.078125 C 6.71875 -0.234375 5.734375 0.1875 4.578125 0.1875 C 3.410156 0.1875 2.429688 -0.222656 1.640625 -1.046875 C 0.847656 -1.878906 0.453125 -2.953125 0.453125 -4.265625 C 0.453125 -5.609375 0.910156 -6.707031 1.828125 -7.5625 C 2.617188 -8.300781 3.570312 -8.671875 4.6875 -8.671875 Z M 4.5625 -8.203125 C 3.800781 -8.203125 3.191406 -7.921875 2.734375 -7.359375 C 2.160156 -6.660156 1.875 -5.640625 1.875 -4.296875 C 1.875 -2.910156 2.171875 -1.84375 2.765625 -1.09375 C 3.222656 -0.53125 3.820312 -0.25 4.5625 -0.25 C 5.363281 -0.25 6.019531 -0.554688 6.53125 -1.171875 C 7.050781 -1.796875 7.3125 -2.78125 7.3125 -4.125 C 7.3125 -5.570312 7.023438 -6.648438 6.453125 -7.359375 C 6.003906 -7.921875 5.375 -8.203125 4.5625 -8.203125 Z M 4.5625 -8.203125 "/>
</g>
<g id="glyph-0-26">
<path d="M 4.03125 -3.03125 C 5.070312 -2.8125 5.59375 -2.320312 5.59375 -1.5625 C 5.59375 -1.039062 5.375 -0.648438 4.9375 -0.390625 C 4.507812 -0.128906 3.90625 0 3.125 0 L 0.296875 0 L 0.296875 -0.234375 C 0.671875 -0.234375 0.90625 -0.300781 1 -0.4375 C 1.101562 -0.582031 1.15625 -0.882812 1.15625 -1.34375 L 1.15625 -4.375 C 1.15625 -4.832031 1.128906 -5.097656 1.078125 -5.171875 C 1.035156 -5.253906 0.96875 -5.328125 0.875 -5.390625 C 0.78125 -5.453125 0.585938 -5.484375 0.296875 -5.484375 L 0.296875 -5.71875 L 2.9375 -5.71875 C 3.445312 -5.71875 3.859375 -5.675781 4.171875 -5.59375 C 4.484375 -5.519531 4.738281 -5.363281 4.9375 -5.125 C 5.144531 -4.894531 5.25 -4.613281 5.25 -4.28125 C 5.25 -3.632812 4.84375 -3.21875 4.03125 -3.03125 Z M 2.1875 -3.171875 C 2.375 -3.160156 2.484375 -3.15625 2.515625 -3.15625 C 3.085938 -3.15625 3.5 -3.265625 3.75 -3.484375 C 4.007812 -3.703125 4.140625 -3.96875 4.140625 -4.28125 C 4.140625 -4.644531 4.007812 -4.90625 3.75 -5.0625 C 3.488281 -5.226562 3.078125 -5.3125 2.515625 -5.3125 L 2.1875 -5.3125 Z M 2.1875 -0.5 C 2.394531 -0.4375 2.644531 -0.40625 2.9375 -0.40625 C 3.425781 -0.40625 3.789062 -0.515625 4.03125 -0.734375 C 4.28125 -0.953125 4.40625 -1.226562 4.40625 -1.5625 C 4.40625 -1.945312 4.25 -2.238281 3.9375 -2.4375 C 3.625 -2.644531 3.1875 -2.75 2.625 -2.75 C 2.488281 -2.75 2.34375 -2.75 2.1875 -2.75 Z M 2.1875 -0.5 "/>
</g>
<g id="glyph-0-27">
<path d="M 2.1875 -1.765625 L 4.65625 -4.625 C 4.65625 -4.945312 4.597656 -5.171875 4.484375 -5.296875 C 4.367188 -5.421875 4.175781 -5.484375 3.90625 -5.484375 L 3.90625 -5.71875 L 6.5625 -5.71875 L 6.5625 -5.484375 C 6.28125 -5.484375 6.09375 -5.453125 6 -5.390625 C 5.90625 -5.335938 5.828125 -5.269531 5.765625 -5.1875 C 5.710938 -5.101562 5.6875 -4.832031 5.6875 -4.375 L 5.6875 -1.34375 C 5.6875 -0.90625 5.707031 -0.640625 5.75 -0.546875 C 5.800781 -0.460938 5.875 -0.390625 5.96875 -0.328125 C 6.070312 -0.265625 6.269531 -0.234375 6.5625 -0.234375 L 6.5625 0 L 3.796875 0 L 3.796875 -0.234375 C 4.140625 -0.234375 4.367188 -0.296875 4.484375 -0.421875 C 4.597656 -0.546875 4.65625 -0.851562 4.65625 -1.34375 L 4.65625 -4.03125 L 2.1875 -1.171875 C 2.195312 -0.816406 2.242188 -0.570312 2.328125 -0.4375 C 2.421875 -0.300781 2.625 -0.234375 2.9375 -0.234375 L 2.9375 0 L 0.28125 0 L 0.28125 -0.234375 C 0.65625 -0.234375 0.894531 -0.300781 1 -0.4375 C 1.101562 -0.570312 1.15625 -0.875 1.15625 -1.34375 L 1.15625 -4.375 C 1.15625 -4.820312 1.128906 -5.085938 1.078125 -5.171875 C 1.035156 -5.253906 0.96875 -5.328125 0.875 -5.390625 C 0.78125 -5.453125 0.582031 -5.484375 0.28125 -5.484375 L 0.28125 -5.71875 L 3.0625 -5.71875 L 3.0625 -5.484375 C 2.78125 -5.484375 2.585938 -5.453125 2.484375 -5.390625 C 2.390625 -5.335938 2.316406 -5.269531 2.265625 -5.1875 C 2.210938 -5.101562 2.1875 -4.832031 2.1875 -4.375 Z M 2.1875 -1.765625 "/>
</g>
<g id="glyph-0-28">
<path d="M 0.6875 2.125 L 0.6875 1.859375 C 1.113281 1.710938 1.441406 1.488281 1.671875 1.1875 C 1.910156 0.894531 2.03125 0.582031 2.03125 0.25 C 2.03125 0.164062 2.015625 0.0976562 1.984375 0.046875 C 1.953125 0.015625 1.921875 0 1.890625 0 C 1.847656 0 1.75 0.0390625 1.59375 0.125 C 1.519531 0.15625 1.441406 0.171875 1.359375 0.171875 C 1.148438 0.171875 0.984375 0.113281 0.859375 0 C 0.742188 -0.125 0.6875 -0.289062 0.6875 -0.5 C 0.6875 -0.707031 0.765625 -0.882812 0.921875 -1.03125 C 1.078125 -1.175781 1.269531 -1.25 1.5 -1.25 C 1.769531 -1.25 2.007812 -1.128906 2.21875 -0.890625 C 2.4375 -0.648438 2.546875 -0.332031 2.546875 0.0625 C 2.546875 0.488281 2.394531 0.882812 2.09375 1.25 C 1.800781 1.625 1.332031 1.914062 0.6875 2.125 Z M 0.6875 2.125 "/>
</g>
<g id="glyph-0-29">
<path d="M 0.078125 -5.71875 L 2.75 -5.71875 L 2.75 -5.5 L 2.609375 -5.5 C 2.421875 -5.5 2.28125 -5.457031 2.1875 -5.375 C 2.09375 -5.289062 2.046875 -5.1875 2.046875 -5.0625 C 2.046875 -4.90625 2.113281 -4.679688 2.25 -4.390625 L 3.65625 -1.5 L 4.9375 -4.671875 C 5 -4.835938 5.03125 -5.003906 5.03125 -5.171875 C 5.03125 -5.242188 5.019531 -5.300781 5 -5.34375 C 4.957031 -5.382812 4.898438 -5.421875 4.828125 -5.453125 C 4.765625 -5.484375 4.644531 -5.5 4.46875 -5.5 L 4.46875 -5.71875 L 6.328125 -5.71875 L 6.328125 -5.5 C 6.171875 -5.476562 6.050781 -5.441406 5.96875 -5.390625 C 5.882812 -5.335938 5.789062 -5.242188 5.6875 -5.109375 C 5.65625 -5.054688 5.585938 -4.894531 5.484375 -4.625 L 3.15625 1.078125 C 2.925781 1.628906 2.628906 2.046875 2.265625 2.328125 C 1.898438 2.617188 1.550781 2.765625 1.21875 2.765625 C 0.96875 2.765625 0.765625 2.691406 0.609375 2.546875 C 0.453125 2.410156 0.375 2.25 0.375 2.0625 C 0.375 1.882812 0.429688 1.742188 0.546875 1.640625 C 0.660156 1.535156 0.816406 1.484375 1.015625 1.484375 C 1.148438 1.484375 1.335938 1.53125 1.578125 1.625 C 1.742188 1.6875 1.847656 1.71875 1.890625 1.71875 C 2.015625 1.71875 2.148438 1.648438 2.296875 1.515625 C 2.441406 1.390625 2.59375 1.140625 2.75 0.765625 L 3.15625 -0.21875 L 1.09375 -4.546875 C 1.03125 -4.671875 0.929688 -4.832031 0.796875 -5.03125 C 0.691406 -5.175781 0.601562 -5.269531 0.53125 -5.3125 C 0.4375 -5.382812 0.285156 -5.445312 0.078125 -5.5 Z M 0.078125 -5.71875 "/>
</g>
<g id="glyph-0-30">
<path d="M 3.59375 -2.765625 L 2.1875 -2.765625 L 2.1875 -1.34375 C 2.1875 -0.914062 2.207031 -0.65625 2.25 -0.5625 C 2.289062 -0.476562 2.359375 -0.398438 2.453125 -0.328125 C 2.554688 -0.265625 2.753906 -0.234375 3.046875 -0.234375 L 3.046875 0 L 0.28125 0 L 0.28125 -0.234375 C 0.570312 -0.242188 0.757812 -0.265625 0.84375 -0.296875 C 0.925781 -0.328125 1 -0.40625 1.0625 -0.53125 C 1.125 -0.664062 1.15625 -0.9375 1.15625 -1.34375 L 1.15625 -4.375 C 1.15625 -4.875 1.101562 -5.179688 1 -5.296875 C 0.894531 -5.421875 0.65625 -5.484375 0.28125 -5.484375 L 0.28125 -5.71875 L 3.046875 -5.71875 L 3.046875 -5.484375 C 2.765625 -5.484375 2.570312 -5.453125 2.46875 -5.390625 C 2.363281 -5.328125 2.289062 -5.25 2.25 -5.15625 C 2.207031 -5.070312 2.1875 -4.8125 2.1875 -4.375 L 2.1875 -3.171875 L 3.625 -3.171875 C 3.726562 -3.972656 4.03125 -4.625 4.53125 -5.125 C 5.039062 -5.632812 5.65625 -5.890625 6.375 -5.890625 C 7.175781 -5.890625 7.832031 -5.597656 8.34375 -5.015625 C 8.863281 -4.429688 9.125 -3.75 9.125 -2.96875 C 9.125 -2.445312 8.992188 -1.921875 8.734375 -1.390625 C 8.484375 -0.859375 8.140625 -0.460938 7.703125 -0.203125 C 7.273438 0.046875 6.804688 0.171875 6.296875 0.171875 C 5.503906 0.171875 4.859375 -0.113281 4.359375 -0.6875 C 3.867188 -1.269531 3.613281 -1.960938 3.59375 -2.765625 Z M 6.171875 -5.484375 C 5.765625 -5.484375 5.425781 -5.304688 5.15625 -4.953125 C 4.894531 -4.609375 4.765625 -4.066406 4.765625 -3.328125 C 4.765625 -2.492188 4.925781 -1.773438 5.25 -1.171875 C 5.582031 -0.566406 6.019531 -0.265625 6.5625 -0.265625 C 7.488281 -0.265625 7.953125 -1.003906 7.953125 -2.484375 C 7.953125 -3.347656 7.789062 -4.0625 7.46875 -4.625 C 7.144531 -5.195312 6.710938 -5.484375 6.171875 -5.484375 Z M 6.171875 -5.484375 "/>
</g>
<g id="glyph-0-31">
<path d="M 0.28125 0 L 0.28125 -0.234375 C 0.632812 -0.234375 0.867188 -0.296875 0.984375 -0.421875 C 1.097656 -0.546875 1.15625 -0.851562 1.15625 -1.34375 L 1.15625 -4.375 C 1.15625 -4.820312 1.128906 -5.085938 1.078125 -5.171875 C 1.035156 -5.253906 0.96875 -5.328125 0.875 -5.390625 C 0.78125 -5.453125 0.582031 -5.484375 0.28125 -5.484375 L 0.28125 -5.71875 L 3.0625 -5.71875 L 3.0625 -5.484375 C 2.78125 -5.484375 2.585938 -5.453125 2.484375 -5.390625 C 2.390625 -5.335938 2.316406 -5.269531 2.265625 -5.1875 C 2.210938 -5.101562 2.1875 -4.832031 2.1875 -4.375 L 2.1875 -1.21875 C 2.1875 -0.820312 2.222656 -0.585938 2.296875 -0.515625 C 2.367188 -0.441406 2.601562 -0.40625 3 -0.40625 L 3.6875 -0.40625 C 3.945312 -0.40625 4.117188 -0.421875 4.203125 -0.453125 C 4.285156 -0.484375 4.335938 -0.535156 4.359375 -0.609375 C 4.390625 -0.679688 4.40625 -0.925781 4.40625 -1.34375 L 4.40625 -4.375 C 4.40625 -4.820312 4.382812 -5.085938 4.34375 -5.171875 C 4.300781 -5.253906 4.226562 -5.328125 4.125 -5.390625 C 4.03125 -5.453125 3.835938 -5.484375 3.546875 -5.484375 L 3.546875 -5.71875 L 6.203125 -5.71875 L 6.203125 -5.484375 C 5.984375 -5.484375 5.816406 -5.445312 5.703125 -5.375 C 5.597656 -5.300781 5.523438 -5.207031 5.484375 -5.09375 C 5.453125 -4.988281 5.4375 -4.75 5.4375 -4.375 L 5.4375 -1.15625 C 5.4375 -0.789062 5.472656 -0.570312 5.546875 -0.5 C 5.617188 -0.4375 5.835938 -0.40625 6.203125 -0.40625 L 6.953125 -0.40625 C 7.347656 -0.40625 7.566406 -0.445312 7.609375 -0.53125 C 7.648438 -0.613281 7.671875 -0.875 7.671875 -1.3125 L 7.671875 -4.375 C 7.671875 -4.820312 7.644531 -5.085938 7.59375 -5.171875 C 7.550781 -5.253906 7.476562 -5.328125 7.375 -5.390625 C 7.28125 -5.453125 7.085938 -5.484375 6.796875 -5.484375 L 6.796875 -5.71875 L 9.5625 -5.71875 L 9.5625 -5.484375 C 9.28125 -5.484375 9.09375 -5.453125 9 -5.390625 C 8.90625 -5.335938 8.832031 -5.269531 8.78125 -5.1875 C 8.726562 -5.101562 8.703125 -4.832031 8.703125 -4.375 L 8.703125 -1.6875 C 8.703125 -1.125 8.71875 -0.773438 8.75 -0.640625 C 8.78125 -0.503906 8.847656 -0.40625 8.953125 -0.34375 C 9.066406 -0.28125 9.269531 -0.242188 9.5625 -0.234375 L 9.5625 1.59375 L 9.328125 1.59375 C 9.304688 1.070312 9.148438 0.675781 8.859375 0.40625 C 8.566406 0.132812 8.035156 0 7.265625 0 Z M 0.28125 0 "/>
</g>
<g id="glyph-0-32">
<path d="M 1.375 -8.015625 C 1.375 -8.160156 1.414062 -8.273438 1.5 -8.359375 C 1.582031 -8.453125 1.6875 -8.5 1.8125 -8.5 C 2.082031 -8.5 2.320312 -8.242188 2.53125 -7.734375 C 2.65625 -7.441406 2.796875 -7.257812 2.953125 -7.1875 C 3.109375 -7.113281 3.257812 -7.078125 3.40625 -7.078125 C 3.675781 -7.078125 3.875 -7.128906 4 -7.234375 C 4.132812 -7.347656 4.257812 -7.550781 4.375 -7.84375 C 4.550781 -8.28125 4.769531 -8.5 5.03125 -8.5 C 5.15625 -8.5 5.257812 -8.453125 5.34375 -8.359375 C 5.425781 -8.273438 5.46875 -8.164062 5.46875 -8.03125 C 5.46875 -7.707031 5.257812 -7.40625 4.84375 -7.125 C 4.425781 -6.851562 3.953125 -6.71875 3.421875 -6.71875 C 2.734375 -6.71875 2.21875 -6.84375 1.875 -7.09375 C 1.539062 -7.34375 1.375 -7.648438 1.375 -8.015625 Z M 2.1875 -1.765625 L 4.65625 -4.625 C 4.65625 -4.945312 4.597656 -5.171875 4.484375 -5.296875 C 4.367188 -5.421875 4.175781 -5.484375 3.90625 -5.484375 L 3.90625 -5.71875 L 6.5625 -5.71875 L 6.5625 -5.484375 C 6.28125 -5.484375 6.09375 -5.453125 6 -5.390625 C 5.90625 -5.335938 5.828125 -5.269531 5.765625 -5.1875 C 5.710938 -5.101562 5.6875 -4.832031 5.6875 -4.375 L 5.6875 -1.34375 C 5.6875 -0.90625 5.707031 -0.640625 5.75 -0.546875 C 5.800781 -0.460938 5.875 -0.390625 5.96875 -0.328125 C 6.070312 -0.265625 6.269531 -0.234375 6.5625 -0.234375 L 6.5625 0 L 3.796875 0 L 3.796875 -0.234375 C 4.140625 -0.234375 4.367188 -0.296875 4.484375 -0.421875 C 4.597656 -0.546875 4.65625 -0.851562 4.65625 -1.34375 L 4.65625 -4.03125 L 2.1875 -1.171875 C 2.195312 -0.816406 2.242188 -0.570312 2.328125 -0.4375 C 2.421875 -0.300781 2.625 -0.234375 2.9375 -0.234375 L 2.9375 0 L 0.28125 0 L 0.28125 -0.234375 C 0.65625 -0.234375 0.894531 -0.300781 1 -0.4375 C 1.101562 -0.570312 1.15625 -0.875 1.15625 -1.34375 L 1.15625 -4.375 C 1.15625 -4.820312 1.128906 -5.085938 1.078125 -5.171875 C 1.035156 -5.253906 0.96875 -5.328125 0.875 -5.390625 C 0.78125 -5.453125 0.582031 -5.484375 0.28125 -5.484375 L 0.28125 -5.71875 L 3.0625 -5.71875 L 3.0625 -5.484375 C 2.78125 -5.484375 2.585938 -5.453125 2.484375 -5.390625 C 2.390625 -5.335938 2.316406 -5.269531 2.265625 -5.1875 C 2.210938 -5.101562 2.1875 -4.832031 2.1875 -4.375 Z M 2.1875 -1.765625 "/>
</g>
<g id="glyph-0-33">
<path d="M 6.578125 -8.015625 L 2.65625 -8.015625 L 2.65625 -1.546875 C 2.65625 -0.984375 2.726562 -0.625 2.875 -0.46875 C 3.019531 -0.320312 3.351562 -0.242188 3.875 -0.234375 L 3.875 0 L 0.234375 0 L 0.234375 -0.234375 C 0.753906 -0.242188 1.085938 -0.320312 1.234375 -0.46875 C 1.378906 -0.625 1.453125 -0.984375 1.453125 -1.546875 L 1.453125 -6.921875 C 1.453125 -7.484375 1.378906 -7.835938 1.234375 -7.984375 C 1.085938 -8.140625 0.753906 -8.222656 0.234375 -8.234375 L 0.234375 -8.46875 L 9.015625 -8.46875 L 9.015625 -8.234375 C 8.484375 -8.222656 8.144531 -8.140625 8 -7.984375 C 7.851562 -7.835938 7.78125 -7.484375 7.78125 -6.921875 L 7.78125 -1.546875 C 7.78125 -0.984375 7.851562 -0.625 8 -0.46875 C 8.144531 -0.320312 8.484375 -0.242188 9.015625 -0.234375 L 9.015625 0 L 5.375 0 L 5.375 -0.234375 C 5.894531 -0.242188 6.222656 -0.320312 6.359375 -0.46875 C 6.503906 -0.625 6.578125 -0.984375 6.578125 -1.546875 Z M 6.578125 -8.015625 "/>
</g>
<g id="glyph-0-34">
<path d="M 1.5 -8.46875 L 8.5 -8.46875 L 8.5 -8.234375 C 7.96875 -8.222656 7.628906 -8.140625 7.484375 -7.984375 C 7.335938 -7.835938 7.265625 -7.484375 7.265625 -6.921875 L 7.265625 -2.234375 C 7.265625 -1.328125 7.316406 -0.765625 7.421875 -0.546875 C 7.523438 -0.335938 7.863281 -0.234375 8.4375 -0.234375 L 8.4375 2.4375 L 8.234375 2.4375 C 8.109375 1.820312 7.90625 1.320312 7.625 0.9375 C 7.34375 0.5625 7.023438 0.3125 6.671875 0.1875 C 6.328125 0.0625 5.910156 0 5.421875 0 L 3.25 0 C 2.3125 0 1.617188 0.253906 1.171875 0.765625 C 0.722656 1.273438 0.457031 1.832031 0.375 2.4375 L 0.15625 2.4375 L 0.15625 -0.234375 C 0.832031 -0.285156 1.378906 -0.6875 1.796875 -1.4375 C 2.222656 -2.1875 2.515625 -3.101562 2.671875 -4.1875 C 2.835938 -5.269531 2.921875 -6.160156 2.921875 -6.859375 C 2.921875 -7.273438 2.867188 -7.578125 2.765625 -7.765625 C 2.660156 -7.960938 2.535156 -8.085938 2.390625 -8.140625 C 2.242188 -8.191406 1.945312 -8.222656 1.5 -8.234375 Z M 3.546875 -8.015625 C 3.441406 -5.546875 3.242188 -3.8125 2.953125 -2.8125 C 2.660156 -1.8125 2.269531 -1.03125 1.78125 -0.46875 L 4.90625 -0.46875 C 5.46875 -0.46875 5.800781 -0.515625 5.90625 -0.609375 C 6.019531 -0.703125 6.078125 -1.019531 6.078125 -1.5625 L 6.078125 -8.015625 Z M 3.546875 -8.015625 "/>
</g>
</g>
</defs>
<rect x="-31.8" y="-48.7" width="381.6" height="584.4" fill="rgb(100%, 100%, 100%)" fill-opacity="1"/>
<path fill-rule="evenodd" fill="rgb(100%, 100%, 100%)" fill-opacity="1" stroke-width="0.1" stroke-linecap="butt" stroke-linejoin="miter" stroke="rgb(0%, 0%, 0%)" stroke-opacity="1" stroke-miterlimit="10" d="M 15.383203 14 L 17.658203 14 C 17.972266 14 18.226953 14.246289 18.226953 14.55 C 18.226953 14.853711 17.972266 15.1 17.658203 15.1 L 15.383203 15.1 C 15.069141 15.1 14.814453 14.853711 14.814453 14.55 C 14.814453 14.246289 15.069141 14 15.383203 14 Z M 15.383203 14 " transform="matrix(20, 0, 0, 20, -138, -277)"/>
<g fill="rgb(0%, 0%, 0%)" fill-opacity="1">
<use xlink:href="#glyph-0-0" x="172.707031" y="18.01926"/>
<use xlink:href="#glyph-0-1" x="181.873698" y="18.01926"/>
<use xlink:href="#glyph-0-2" x="187.151476" y="18.01926"/>
<use xlink:href="#glyph-0-1" x="193.540365" y="18.01926"/>
<use xlink:href="#glyph-0-3" x="199.373698" y="18.01926"/>
<use xlink:href="#glyph-0-4" x="205.762587" y="18.01926"/>
</g>
<path fill-rule="evenodd" fill="rgb(100%, 100%, 100%)" fill-opacity="1" stroke-width="0.1" stroke-linecap="butt" stroke-linejoin="miter" stroke="rgb(0%, 0%, 0%)" stroke-opacity="1" stroke-miterlimit="10" d="M 15.528125 37 L 17.513086 37 C 17.787305 37 18.009375 37.246289 18.009375 37.55 C 18.009375 37.853711 17.787305 38.1 17.513086 38.1 L 15.528125 38.1 C 15.254102 38.1 15.031836 37.853711 15.031836 37.55 C 15.031836 37.246289 15.254102 37 15.528125 37 Z M 15.528125 37 " transform="matrix(20, 0, 0, 20, -138, -277)"/>
<g fill="rgb(0%, 0%, 0%)" fill-opacity="1">
<use xlink:href="#glyph-0-5" x="175.480469" y="478.01926"/>
<use xlink:href="#glyph-0-4" x="183.536024" y="478.01926"/>
<use xlink:href="#glyph-0-6" x="189.924913" y="478.01926"/>
<use xlink:href="#glyph-0-7" x="196.869358" y="478.01926"/>
<use xlink:href="#glyph-0-8" x="202.424913" y="478.01926"/>
</g>
<path fill-rule="evenodd" fill="rgb(100%, 100%, 100%)" fill-opacity="1" stroke-width="0.1" stroke-linecap="butt" stroke-linejoin="miter" stroke="rgb(0%, 0%, 0%)" stroke-opacity="1" stroke-miterlimit="10" d="M 16.520703 17.166797 L 22.707617 20.260352 L 16.520703 23.353711 L 10.333789 20.260352 Z M 16.520703 17.166797 " transform="matrix(20, 0, 0, 20, -138, -277)"/>
<g fill="rgb(0%, 0%, 0%)" fill-opacity="1">
<use xlink:href="#glyph-0-9" x="141.027344" y="115.67551"/>
<use xlink:href="#glyph-0-10" x="149.638455" y="115.67551"/>
<use xlink:href="#glyph-0-11" x="152.971788" y="115.67551"/>
<use xlink:href="#glyph-0-4" x="159.916233" y="115.67551"/>
<use xlink:href="#glyph-0-12" x="166.860677" y="115.67551"/>
<use xlink:href="#glyph-0-3" x="172.416233" y="115.67551"/>
<use xlink:href="#glyph-0-7" x="178.805122" y="115.67551"/>
<use xlink:href="#glyph-0-13" x="184.360677" y="115.67551"/>
<use xlink:href="#glyph-0-6" x="190.749566" y="115.67551"/>
<use xlink:href="#glyph-0-7" x="197.69401" y="115.67551"/>
<use xlink:href="#glyph-0-14" x="203.249566" y="115.67551"/>
<use xlink:href="#glyph-0-4" x="207.971788" y="115.67551"/>
<use xlink:href="#glyph-0-10" x="214.360677" y="115.67551"/>
<use xlink:href="#glyph-0-15" x="217.69401" y="115.67551"/>
<use xlink:href="#glyph-0-1" x="227.416233" y="115.67551"/>
<use xlink:href="#glyph-0-14" x="232.971788" y="115.67551"/>
<use xlink:href="#glyph-0-1" x="238.249566" y="115.67551"/>
</g>
<g fill="rgb(0%, 0%, 0%)" fill-opacity="1">
<use xlink:href="#glyph-0-11" x="148.820313" y="131.67551"/>
<use xlink:href="#glyph-0-16" x="155.764757" y="131.67551"/>
<use xlink:href="#glyph-0-4" x="162.153646" y="131.67551"/>
<use xlink:href="#glyph-0-15" x="168.542535" y="131.67551"/>
<use xlink:href="#glyph-0-3" x="178.264757" y="131.67551"/>
<use xlink:href="#glyph-0-4" x="184.653646" y="131.67551"/>
<use xlink:href="#glyph-0-10" x="191.042535" y="131.67551"/>
<use xlink:href="#glyph-0-17" x="194.375868" y="131.67551"/>
<use xlink:href="#glyph-0-7" x="202.431424" y="131.67551"/>
<use xlink:href="#glyph-0-6" x="207.986979" y="131.67551"/>
<use xlink:href="#glyph-0-18" x="214.931424" y="131.67551"/>
<use xlink:href="#glyph-0-15" x="220.764757" y="131.67551"/>
<use xlink:href="#glyph-0-7" x="230.486979" y="131.67551"/>
</g>
<g fill="rgb(0%, 0%, 0%)" fill-opacity="1">
<use xlink:href="#glyph-0-19" x="142.707031" y="147.67551"/>
<use xlink:href="#glyph-0-20" x="149.09592" y="147.67551"/>
<use xlink:href="#glyph-0-20" x="155.484809" y="147.67551"/>
<use xlink:href="#glyph-0-20" x="161.873698" y="147.67551"/>
<use xlink:href="#glyph-0-21" x="168.262587" y="147.67551"/>
<use xlink:href="#glyph-0-12" x="171.873698" y="147.67551"/>
<use xlink:href="#glyph-0-22" x="177.429253" y="147.67551"/>
<use xlink:href="#glyph-0-4" x="182.984809" y="147.67551"/>
<use xlink:href="#glyph-0-16" x="189.373698" y="147.67551"/>
<use xlink:href="#glyph-0-4" x="195.762587" y="147.67551"/>
<use xlink:href="#glyph-0-12" x="202.707031" y="147.67551"/>
<use xlink:href="#glyph-0-23" x="208.262587" y="147.67551"/>
<use xlink:href="#glyph-0-18" x="213.818142" y="147.67551"/>
<use xlink:href="#glyph-0-10" x="219.651476" y="147.67551"/>
<use xlink:href="#glyph-0-17" x="222.984809" y="147.67551"/>
<use xlink:href="#glyph-0-12" x="231.040365" y="147.67551"/>
<use xlink:href="#glyph-0-24" x="236.59592" y="147.67551"/>
</g>
<path fill-rule="evenodd" fill="rgb(100%, 100%, 100%)" fill-opacity="1" stroke-width="0.1" stroke-linecap="butt" stroke-linejoin="miter" stroke="rgb(0%, 0%, 0%)" stroke-opacity="1" stroke-miterlimit="10" d="M 13.435742 30.6 L 19.605664 30.6 L 19.605664 34.1 L 13.435742 34.1 Z M 13.435742 30.6 " transform="matrix(20, 0, 0, 20, -138, -277)"/>
<g fill="rgb(0%, 0%, 0%)" fill-opacity="1">
<use xlink:href="#glyph-0-25" x="141.59375" y="357.468479"/>
<use xlink:href="#glyph-0-23" x="150.760417" y="357.468479"/>
<use xlink:href="#glyph-0-11" x="156.315972" y="357.468479"/>
<use xlink:href="#glyph-0-16" x="163.260417" y="357.468479"/>
<use xlink:href="#glyph-0-1" x="169.649306" y="357.468479"/>
<use xlink:href="#glyph-0-26" x="175.204861" y="357.468479"/>
<use xlink:href="#glyph-0-27" x="181.315972" y="357.468479"/>
<use xlink:href="#glyph-0-23" x="188.260417" y="357.468479"/>
<use xlink:href="#glyph-0-18" x="193.815972" y="357.468479"/>
<use xlink:href="#glyph-0-10" x="199.649306" y="357.468479"/>
<use xlink:href="#glyph-0-12" x="202.982639" y="357.468479"/>
<use xlink:href="#glyph-0-27" x="208.538194" y="357.468479"/>
<use xlink:href="#glyph-0-14" x="215.482639" y="357.468479"/>
<use xlink:href="#glyph-0-6" x="220.760417" y="357.468479"/>
<use xlink:href="#glyph-0-1" x="227.704861" y="357.468479"/>
<use xlink:href="#glyph-0-3" x="233.538194" y="357.468479"/>
<use xlink:href="#glyph-0-28" x="239.927083" y="357.468479"/>
</g>
<g fill="rgb(0%, 0%, 0%)" fill-opacity="1">
<use xlink:href="#glyph-0-12" x="142.003906" y="373.468479"/>
<use xlink:href="#glyph-0-4" x="147.559462" y="373.468479"/>
<use xlink:href="#glyph-0-4" x="153.948351" y="373.468479"/>
<use xlink:href="#glyph-0-23" x="160.33724" y="373.468479"/>
<use xlink:href="#glyph-0-26" x="165.892795" y="373.468479"/>
<use xlink:href="#glyph-0-7" x="172.003906" y="373.468479"/>
<use xlink:href="#glyph-0-23" x="177.559462" y="373.468479"/>
<use xlink:href="#glyph-0-12" x="183.115017" y="373.468479"/>
<use xlink:href="#glyph-0-23" x="188.948351" y="373.468479"/>
<use xlink:href="#glyph-0-26" x="194.503906" y="373.468479"/>
<use xlink:href="#glyph-0-29" x="200.059462" y="373.468479"/>
<use xlink:href="#glyph-0-30" x="206.448351" y="373.468479"/>
<use xlink:href="#glyph-0-31" x="215.892795" y="373.468479"/>
<use xlink:href="#glyph-0-27" x="225.615017" y="373.468479"/>
<use xlink:href="#glyph-0-32" x="232.559462" y="373.468479"/>
<use xlink:href="#glyph-0-10" x="239.503906" y="373.468479"/>
</g>
<g fill="rgb(0%, 0%, 0%)" fill-opacity="1">
<use xlink:href="#glyph-0-6" x="157.84375" y="389.468479"/>
<use xlink:href="#glyph-0-4" x="164.788194" y="389.468479"/>
<use xlink:href="#glyph-0-17" x="171.177083" y="389.468479"/>
<use xlink:href="#glyph-0-7" x="179.232639" y="389.468479"/>
<use xlink:href="#glyph-0-16" x="184.788194" y="389.468479"/>
<use xlink:href="#glyph-0-29" x="191.177083" y="389.468479"/>
<use xlink:href="#glyph-0-10" x="197.565972" y="389.468479"/>
<use xlink:href="#glyph-0-15" x="200.899306" y="389.468479"/>
<use xlink:href="#glyph-0-1" x="210.621528" y="389.468479"/>
<use xlink:href="#glyph-0-14" x="216.177083" y="389.468479"/>
<use xlink:href="#glyph-0-1" x="221.454861" y="389.468479"/>
</g>
<path fill-rule="evenodd" fill="rgb(100%, 100%, 100%)" fill-opacity="1" stroke-width="0.1" stroke-linecap="butt" stroke-linejoin="miter" stroke="rgb(0%, 0%, 0%)" stroke-opacity="1" stroke-miterlimit="10" d="M 14.134375 26 L 18.906836 26 L 18.906836 28.7 L 14.134375 28.7 Z M 14.134375 26 " transform="matrix(20, 0, 0, 20, -138, -277)"/>
<g fill="rgb(0%, 0%, 0%)" fill-opacity="1">
<use xlink:href="#glyph-0-33" x="155.890625" y="265.468479"/>
<use xlink:href="#glyph-0-7" x="165.057292" y="265.468479"/>
<use xlink:href="#glyph-0-16" x="170.612847" y="265.468479"/>
<use xlink:href="#glyph-0-7" x="177.001736" y="265.468479"/>
<use xlink:href="#glyph-0-22" x="182.557292" y="265.468479"/>
<use xlink:href="#glyph-0-3" x="188.668403" y="265.468479"/>
<use xlink:href="#glyph-0-30" x="195.057292" y="265.468479"/>
<use xlink:href="#glyph-0-2" x="204.223958" y="265.468479"/>
<use xlink:href="#glyph-0-27" x="210.612847" y="265.468479"/>
<use xlink:href="#glyph-0-23" x="217.557292" y="265.468479"/>
<use xlink:href="#glyph-0-18" x="223.112847" y="265.468479"/>
</g>
<g fill="rgb(0%, 0%, 0%)" fill-opacity="1">
<use xlink:href="#glyph-0-6" x="161.027344" y="281.468479"/>
<use xlink:href="#glyph-0-4" x="167.971788" y="281.468479"/>
<use xlink:href="#glyph-0-17" x="174.360677" y="281.468479"/>
<use xlink:href="#glyph-0-7" x="182.416233" y="281.468479"/>
<use xlink:href="#glyph-0-16" x="187.971788" y="281.468479"/>
<use xlink:href="#glyph-0-10" x="194.360677" y="281.468479"/>
<use xlink:href="#glyph-0-15" x="197.69401" y="281.468479"/>
<use xlink:href="#glyph-0-1" x="207.416233" y="281.468479"/>
<use xlink:href="#glyph-0-14" x="212.971788" y="281.468479"/>
<use xlink:href="#glyph-0-1" x="218.249566" y="281.468479"/>
</g>
<g fill="rgb(0%, 0%, 0%)" fill-opacity="1">
<use xlink:href="#glyph-0-0" x="196.414062" y="203.823947"/>
<use xlink:href="#glyph-0-7" x="205.580729" y="203.823947"/>
<use xlink:href="#glyph-0-23" x="211.136285" y="203.823947"/>
</g>
<g fill="rgb(0%, 0%, 0%)" fill-opacity="1">
<use xlink:href="#glyph-0-34" x="39.335938" y="121.42551"/>
<use xlink:href="#glyph-0-1" x="47.947049" y="121.42551"/>
</g>
<path fill="none" stroke-width="0.1" stroke-linecap="butt" stroke-linejoin="miter" stroke="rgb(0%, 0%, 0%)" stroke-opacity="1" stroke-miterlimit="10" d="M 16.520703 15.149805 L 16.520703 16.630078 " transform="matrix(20, 0, 0, 20, -138, -277)"/>
<path fill-rule="evenodd" fill="rgb(0%, 0%, 0%)" fill-opacity="1" stroke-width="0.1" stroke-linecap="butt" stroke-linejoin="miter" stroke="rgb(0%, 0%, 0%)" stroke-opacity="1" stroke-miterlimit="10" d="M 16.520703 17.005078 L 16.270703 16.505078 L 16.520703 16.630078 L 16.770703 16.505078 Z M 16.520703 17.005078 " transform="matrix(20, 0, 0, 20, -138, -277)"/>
<path fill="none" stroke-width="0.1" stroke-linecap="butt" stroke-linejoin="miter" stroke="rgb(0%, 0%, 0%)" stroke-opacity="1" stroke-miterlimit="10" d="M 16.520703 23.403711 L 16.520703 25.462891 " transform="matrix(20, 0, 0, 20, -138, -277)"/>
<path fill-rule="evenodd" fill="rgb(0%, 0%, 0%)" fill-opacity="1" stroke-width="0.1" stroke-linecap="butt" stroke-linejoin="miter" stroke="rgb(0%, 0%, 0%)" stroke-opacity="1" stroke-miterlimit="10" d="M 16.520703 25.837891 L 16.270703 25.337891 L 16.520703 25.462891 L 16.770703 25.337891 Z M 16.520703 25.837891 " transform="matrix(20, 0, 0, 20, -138, -277)"/>
<path fill="none" stroke-width="0.1" stroke-linecap="butt" stroke-linejoin="miter" stroke="rgb(0%, 0%, 0%)" stroke-opacity="1" stroke-miterlimit="10" d="M 16.520703 28.750391 L 16.520703 30.062695 " transform="matrix(20, 0, 0, 20, -138, -277)"/>
<path fill-rule="evenodd" fill="rgb(0%, 0%, 0%)" fill-opacity="1" stroke-width="0.1" stroke-linecap="butt" stroke-linejoin="miter" stroke="rgb(0%, 0%, 0%)" stroke-opacity="1" stroke-miterlimit="10" d="M 16.520703 30.437695 L 16.270703 29.937695 L 16.520703 30.062695 L 16.770703 29.937695 Z M 16.520703 30.437695 " transform="matrix(20, 0, 0, 20, -138, -277)"/>
<path fill="none" stroke-width="0.1" stroke-linecap="butt" stroke-linejoin="miter" stroke="rgb(0%, 0%, 0%)" stroke-opacity="1" stroke-miterlimit="10" d="M 16.520703 34.150391 L 16.520703 36.463281 " transform="matrix(20, 0, 0, 20, -138, -277)"/>
<path fill-rule="evenodd" fill="rgb(0%, 0%, 0%)" fill-opacity="1" stroke-width="0.1" stroke-linecap="butt" stroke-linejoin="miter" stroke="rgb(0%, 0%, 0%)" stroke-opacity="1" stroke-miterlimit="10" d="M 16.520703 36.838281 L 16.270703 36.338281 L 16.520703 36.463281 L 16.770703 36.338281 Z M 16.520703 36.838281 " transform="matrix(20, 0, 0, 20, -138, -277)"/>
<path fill="none" stroke-width="0.1" stroke-linecap="butt" stroke-linejoin="miter" stroke="rgb(0%, 0%, 0%)" stroke-opacity="1" stroke-miterlimit="10" d="M 10.333789 20.260352 L 7 20.260352 L 7 35.550391 L 16.033789 35.550391 " transform="matrix(20, 0, 0, 20, -138, -277)"/>
<path fill-rule="evenodd" fill="rgb(0%, 0%, 0%)" fill-opacity="1" stroke-width="0.1" stroke-linecap="butt" stroke-linejoin="miter" stroke="rgb(0%, 0%, 0%)" stroke-opacity="1" stroke-miterlimit="10" d="M 16.408789 35.550391 L 15.908789 35.800391 L 16.033789 35.550391 L 15.908789 35.300391 Z M 16.408789 35.550391 " transform="matrix(20, 0, 0, 20, -138, -277)"/>
</svg>
